# 3ds Max Wavefront OBJ Exporter v0.97b - (c)2007 guruware
# File Created: 18.05.2018 11:04:46

mtllib ONLYDIBAN.mtl

#
# object Object_029_Mesh_029_M_Object_029_Mesh_029_M_Material_016_d7981b66_d7981b66_dds
#

v  3.5646 -2.3947 7.1563
v  3.5633 -2.3947 6.2735
v  3.1395 -2.3947 7.1561
v  3.1382 -2.3947 6.2735
v  3.1367 -2.3947 5.3902
v  2.7116 -2.3947 5.3902
v  3.1353 -2.3949 4.5084
v  2.7101 -2.3947 4.5084
v  3.1338 -2.3947 3.6245
v  2.7089 -2.3949 3.6245
v  2.7076 -2.3949 2.7416
v  2.2821 -2.3950 2.7414
v  2.7063 -2.3950 1.8586
v  2.2810 -2.3949 1.8584
v  2.2797 -2.3950 0.9755
v  1.8543 -2.3950 0.9755
v  2.2783 -2.3950 0.0926
v  1.8530 -2.3951 0.0926
v  1.8519 -2.3950 -0.7902
v  1.4278 -2.3950 0.0924
v  1.4265 -2.3950 -0.7902
v  1.0027 -2.3950 0.0924
v  1.0013 -2.3951 -0.7902
v  0.5761 -2.3951 -0.7902
v  0.9998 -2.3951 -1.6720
v  0.5748 -2.3951 -1.6737
v  0.5735 -2.3951 -2.5564
v  0.1495 -2.3951 -1.6737
v  0.1481 -2.3955 -2.5564
v  -0.2756 -2.3955 -1.6737
v  -0.2774 -2.3955 -2.5564
v  -0.7012 -2.3951 -1.6739
v  -0.7027 -2.3955 -2.5564
v  -1.1273 -2.3955 -2.5564
v  -1.1288 -2.3955 -3.4396
v  -1.5525 -2.3955 -2.5564
v  -1.5539 -2.3955 -3.4396
v  1.4293 -2.3951 0.9753
v  1.0038 -2.3950 0.9753
v  0.5786 -2.3950 0.9751
v  1.0054 -2.3949 1.8581
v  0.5802 -2.3950 1.8581
v  0.5815 -2.3949 2.7410
v  0.1549 -2.3950 1.8581
v  0.1562 -2.3950 2.7410
v  -0.2690 -2.3950 2.7410
v  -0.2675 -2.3950 3.6238
v  -0.6942 -2.3950 2.7408
v  -0.6928 -2.3950 3.6236
v  -1.1180 -2.3950 3.6236
v  -0.6913 -2.3950 4.5067
v  -1.1166 -2.3950 4.5067
v  -0.6905 -2.3949 5.3902
v  -1.1152 -2.3950 5.3902
v  -1.1139 -2.3949 6.2735
v  -1.5406 -2.3949 5.3902
v  -1.5393 -2.3950 6.2735
v  2.7142 -2.3947 7.1559
v  2.7129 -2.3947 6.2735
v  2.2878 -2.3947 6.2735
v  2.2864 -2.3947 5.3902
v  1.8625 -2.3947 6.2735
v  1.8611 -2.3949 5.3902
v  1.4358 -2.3949 5.3902
v  1.4346 -2.3949 4.5069
v  1.0106 -2.3949 5.3902
v  1.0094 -2.3949 4.5069
v  0.5840 -2.3950 4.5067
v  0.5826 -2.3950 3.6238
v  0.1590 -2.3949 4.5067
v  0.1576 -2.3949 3.6238
v  -1.5552 -2.3955 -4.3229
v  -1.1301 -2.3955 -4.3225
v  -0.7049 -2.3955 -4.3225
v  -0.7066 -2.3956 -5.2056
v  -0.2797 -2.3955 -4.3225
v  -0.2810 -2.3956 -5.2056
v  0.1441 -2.3955 -5.2054
v  0.1427 -2.3956 -6.0880
v  0.5695 -2.3956 -5.2054
v  0.5681 -2.3955 -6.0880
v  0.9946 -2.3955 -5.2049
v  0.9934 -2.3956 -6.0880
v  1.4185 -2.3955 -6.0880
v  0.9920 -2.3955 -6.9708
v  1.4172 -2.3956 -6.9708
v  -1.5514 -2.3955 -1.6742
v  -1.1260 -2.3951 -1.6739
v  -1.1247 -2.3951 -0.7902
v  -0.6995 -2.3955 -0.7902
v  -0.2743 -2.3951 -0.7902
v  -0.6982 -2.3951 0.0920
v  -0.2735 -2.3951 0.0922
v  -0.2721 -2.3950 0.9751
v  0.1535 -2.3951 0.9751
v  -0.2703 -2.3951 1.8581
v  1.4252 -2.3951 -1.6720
v  1.8504 -2.3951 -1.6720
v  2.2757 -2.3951 -1.6720
v  2.2743 -2.3951 -2.5561
v  2.7009 -2.3951 -1.6720
v  2.6996 -2.3951 -2.5557
v  3.1247 -2.3951 -2.5557
v  3.1233 -2.3951 -3.4388
v  3.5499 -2.3950 -2.5557
v  3.5483 -2.3951 -3.4383
v  1.4238 -2.3951 -2.5561
v  0.9987 -2.3951 -2.5561
v  0.5722 -2.3955 -3.4392
v  0.1470 -2.3955 -3.4392
v  -0.2788 -2.3955 -3.4396
v  0.1456 -2.3955 -4.3221
v  -1.5379 -2.3949 7.1553
v  -1.1126 -2.3949 7.1553
v  -0.6889 -2.3949 6.2735
v  -0.2636 -2.3949 6.2735
v  -0.2650 -2.3949 5.3902
v  0.1616 -2.3949 6.2735
v  0.1603 -2.3949 5.3902
v  0.5853 -2.3949 5.3902
v  2.7034 -2.3950 0.0929
v  2.7047 -2.3949 0.9766
v  3.1300 -2.3950 0.9766
v  3.1314 -2.3949 1.8586
v  3.5565 -2.3949 1.8588
v  3.1327 -2.3949 2.7416
v  3.5580 -2.3947 2.7419
v  3.5593 -2.3949 3.6249
v  3.5604 -2.3949 4.5084
v  -1.5565 -2.3956 -5.2056
v  -1.1314 -2.3955 -5.2056
v  -1.1327 -2.3956 -6.0884
v  -0.7081 -2.3955 -6.0884
v  -0.7089 -2.3956 -6.9708
v  -0.2827 -2.3956 -6.0884
v  -0.2842 -2.3955 -6.9708
v  0.1416 -2.3956 -6.9708
v  0.5668 -2.3956 -6.9708
v  3.5473 -2.3951 -4.3212
v  3.1218 -2.3955 -4.3216
v  3.5459 -2.3955 -5.2040
v  3.1203 -2.3951 -5.2045
v  3.1193 -2.3955 -6.0876
v  2.6953 -2.3955 -5.2045
v  2.6941 -2.3955 -6.0876
v  2.2689 -2.3955 -6.0876
v  2.6927 -2.3955 -6.9700
v  2.2676 -2.3955 -6.9706
v  1.8491 -2.3951 -2.5561
v  1.4226 -2.3955 -3.4392
v  0.9971 -2.3951 -3.4392
v  0.9960 -2.3955 -4.3221
v  0.5707 -2.3955 -4.3221
v  3.5513 -2.3950 -1.6720
v  3.1261 -2.3950 -1.6720
v  3.1271 -2.3950 -0.7900
v  2.7022 -2.3950 -0.7900
v  2.2769 -2.3951 -0.7902
v  2.2849 -2.3949 4.5071
v  1.8597 -2.3949 4.5071
v  1.4332 -2.3949 3.6241
v  1.0079 -2.3950 3.6241
v  1.0067 -2.3950 2.7412
v  0.1509 -2.3951 -0.7902
v  0.1522 -2.3950 0.0922
v  0.5772 -2.3951 0.0922
v  1.4305 -2.3950 1.8581
v  1.4319 -2.3950 2.7412
v  1.8557 -2.3950 1.8584
v  1.8571 -2.3949 2.7414
v  2.2730 -2.3951 -3.4388
v  1.8478 -2.3951 -3.4388
v  1.8463 -2.3955 -4.3216
v  1.4211 -2.3951 -4.3221
v  -1.1234 -2.3955 0.0920
v  -1.1219 -2.3951 0.9748
v  -0.6973 -2.3951 0.9748
v  -0.6959 -2.3950 1.8581
v  2.6967 -2.3951 -4.3216
v  2.2716 -2.3951 -4.3216
v  2.6981 -2.3951 -3.4388
v  1.8584 -2.3949 3.6245
v  2.2835 -2.3949 3.6245
v  0.5866 -2.3949 6.2735
v  1.0121 -2.3947 6.2735
v  1.0135 -2.3949 7.1557
v  1.4373 -2.3949 6.2735
v  1.4387 -2.3947 7.1557
v  -0.6874 -2.3947 7.1553
v  -0.2622 -2.3949 7.1555
v  0.1630 -2.3949 7.1555
v  0.5880 -2.3947 7.1555
v  -0.2667 -2.3949 4.5067
v  -1.5420 -2.3950 4.5067
v  -1.5433 -2.3950 3.6234
v  -1.5447 -2.3951 2.7406
v  2.2888 -2.3947 7.1557
v  1.8638 -2.3947 7.1557
v  -1.1193 -2.3950 2.7408
v  1.4199 -2.3955 -5.2049
v  1.8435 -2.3955 -6.0876
v  1.8450 -2.3951 -5.2049
v  2.2702 -2.3955 -5.2045
v  -1.5498 -2.3951 -0.7902
v  -1.5485 -2.3951 0.0918
v  -1.5471 -2.3951 0.9748
v  3.5619 -2.3947 5.3904
v  -1.5460 -2.3951 1.8581
v  -1.1206 -2.3951 1.8581
v  3.5552 -2.3949 0.9766
v  3.1284 -2.3950 0.0929
v  3.5537 -2.3950 0.0948
v  3.5525 -2.3950 -0.7898
v  -0.7035 -2.3955 -3.4396
v  -1.1341 -2.3956 -6.9708
v  -1.5579 -2.3956 -6.0884
v  -1.5592 -2.3956 -6.9715
v  3.5445 -2.3951 -6.0871
v  3.1180 -2.3955 -6.9700
v  3.5431 -2.3955 -6.9700
v  1.8425 -2.3955 -6.9706
# 221 vertices

vn 0.0000 1.0000 -0.0000
vn 0.0000 1.0000 -0.0002
vn 0.0005 1.0000 -0.0000
vn 0.0005 1.0000 0.0002
vn -0.0005 1.0000 -0.0002
vn -0.0005 1.0000 -0.0000
vn -0.0002 1.0000 -0.0000
vn -0.0002 1.0000 -0.0001
vn 0.0002 1.0000 0.0001
vn 0.0002 1.0000 -0.0001
vn 0.0000 1.0000 -0.0001
vn -0.0002 1.0000 0.0001
vn -0.0009 1.0000 -0.0004
vn 0.0009 1.0000 -0.0000
vn 0.0000 1.0000 -0.0004
vn 0.0000 1.0000 0.0001
vn 0.0002 1.0000 -0.0000
vn -0.0009 1.0000 -0.0000
vn 0.0009 1.0000 0.0004
vn -0.0009 1.0000 0.0004
vn 0.0009 1.0000 -0.0004
vn -0.0005 1.0000 0.0002
vn 0.0000 1.0000 0.0004
vn 0.0000 1.0000 0.0002
vn 0.0005 1.0000 -0.0002
# 25 vertex normals

vt 6.5000 2.5000 0.0000
vt 5.7500 2.5000 0.0000
vt 6.5000 2.1667 0.0000
vt 5.7500 2.1667 0.0000
vt 5.0000 2.1667 0.0000
vt 5.0000 1.8332 0.0000
vt 4.2500 2.1667 0.0000
vt 4.2500 1.8332 0.0000
vt 3.5000 2.1667 0.0000
vt 3.5000 1.8332 0.0000
vt 2.7499 1.8332 0.0000
vt 2.7499 1.5000 0.0000
vt 1.9999 1.8332 0.0000
vt 1.9999 1.5000 0.0000
vt 1.2499 1.5000 0.0000
vt 1.2499 1.1662 0.0000
vt 0.4999 1.5000 0.0000
vt 0.4999 1.1662 0.0000
vt -0.2501 1.1662 0.0000
vt 0.4999 0.8327 0.0000
vt -0.2501 0.8327 0.0000
vt 0.4999 0.5000 0.0000
vt -0.2501 0.5000 0.0000
vt -0.2501 0.1667 0.0000
vt -1.0001 0.5000 0.0000
vt -1.0001 0.1667 0.0000
vt -1.7501 0.1667 0.0000
vt -1.0001 -0.1670 0.0000
vt -1.7501 -0.1670 0.0000
vt -1.0001 -0.5000 0.0000
vt -1.7501 -0.5000 0.0000
vt -1.0001 -0.8333 0.0000
vt -1.7501 -0.8333 0.0000
vt -1.7501 -1.1668 0.0000
vt -2.5001 -1.1668 0.0000
vt -1.7501 -1.5000 0.0000
vt -2.5001 -1.5000 0.0000
vt 1.2499 0.8327 0.0000
vt 1.2499 0.5000 0.0000
vt 1.2499 0.1667 0.0000
vt 1.9999 0.5000 0.0000
vt 1.9999 0.1667 0.0000
vt 2.7499 0.1667 0.0000
vt 1.9999 -0.1670 0.0000
vt 2.7499 -0.1670 0.0000
vt 2.7499 -0.5000 0.0000
vt 3.5000 -0.5000 0.0000
vt 2.7499 -0.8333 0.0000
vt 3.5000 -0.8333 0.0000
vt 3.5000 -1.1668 0.0000
vt 4.2500 -0.8333 0.0000
vt 4.2500 -1.1668 0.0000
vt 5.0000 -0.8333 0.0000
vt 5.0000 -1.1668 0.0000
vt 5.7500 -1.1668 0.0000
vt 5.0000 -1.5000 0.0000
vt 5.7500 -1.5000 0.0000
vt 6.5000 1.8332 0.0000
vt 5.7500 1.8332 0.0000
vt 5.7500 1.5000 0.0000
vt 5.0000 1.5000 0.0000
vt 5.7500 1.1662 0.0000
vt 5.0000 1.1662 0.0000
vt 5.0000 0.8327 0.0000
vt 4.2500 0.8327 0.0000
vt 5.0000 0.5000 0.0000
vt 4.2500 0.5000 0.0000
vt 4.2500 0.1667 0.0000
vt 3.5000 0.1667 0.0000
vt 4.2500 -0.1670 0.0000
vt 3.5000 -0.1670 0.0000
vt -3.2501 -1.5000 0.0000
vt -3.2501 -1.1668 0.0000
vt -3.2501 -0.8333 0.0000
vt -4.0002 -0.8333 0.0000
vt -3.2501 -0.5000 0.0000
vt -4.0002 -0.5000 0.0000
vt -4.0002 -0.1670 0.0000
vt -4.7502 -0.1670 0.0000
vt -4.0002 0.1667 0.0000
vt -4.7502 0.1667 0.0000
vt -4.0002 0.5000 0.0000
vt -4.7502 0.5000 0.0000
vt -4.7502 0.8327 0.0000
vt -5.5000 0.5000 0.0000
vt -5.5000 0.8327 0.0000
vt -1.0001 -1.5000 0.0000
vt -1.0001 -1.1668 0.0000
vt -0.2501 -1.1668 0.0000
vt -0.2501 -0.8333 0.0000
vt -0.2501 -0.5000 0.0000
vt 0.4999 -0.8333 0.0000
vt 0.4999 -0.5000 0.0000
vt 1.2499 -0.5000 0.0000
vt 1.2499 -0.1670 0.0000
vt 1.9999 -0.5000 0.0000
vt -1.0001 0.8327 0.0000
vt -1.0001 1.1662 0.0000
vt -1.0001 1.5000 0.0000
vt -1.7501 1.5000 0.0000
vt -1.0001 1.8332 0.0000
vt -1.7501 1.8332 0.0000
vt -1.7501 2.1667 0.0000
vt -2.5001 2.1667 0.0000
vt -1.7501 2.5000 0.0000
vt -2.5001 2.5000 0.0000
vt -1.7501 0.8327 0.0000
vt -1.7501 0.5000 0.0000
vt -2.5001 0.1667 0.0000
vt -2.5001 -0.1670 0.0000
vt -2.5001 -0.5000 0.0000
vt -3.2501 -0.1670 0.0000
vt 6.5000 -1.5000 0.0000
vt 6.5000 -1.1668 0.0000
vt 5.7500 -0.8333 0.0000
vt 5.7500 -0.5000 0.0000
vt 5.0000 -0.5000 0.0000
vt 5.7500 -0.1670 0.0000
vt 5.0000 -0.1670 0.0000
vt 5.0000 0.1667 0.0000
vt 0.4999 1.8332 0.0000
vt 1.2499 1.8332 0.0000
vt 1.2499 2.1667 0.0000
vt 1.9999 2.1667 0.0000
vt 1.9999 2.5000 0.0000
vt 2.7499 2.1667 0.0000
vt 2.7499 2.5000 0.0000
vt 3.5000 2.5000 0.0000
vt 4.2500 2.5000 0.0000
vt -4.0002 -1.5000 0.0000
vt -4.0002 -1.1668 0.0000
vt -4.7502 -1.1668 0.0000
vt -4.7502 -0.8333 0.0000
vt -5.5000 -0.8333 0.0000
vt -4.7502 -0.5000 0.0000
vt -5.5000 -0.5000 0.0000
vt -5.5000 -0.1670 0.0000
vt -5.5000 0.1667 0.0000
vt -3.2501 2.5000 0.0000
vt -3.2501 2.1667 0.0000
vt -4.0002 2.5000 0.0000
vt -4.0002 2.1667 0.0000
vt -4.7502 2.1667 0.0000
vt -4.0002 1.8332 0.0000
vt -4.7502 1.8332 0.0000
vt -4.7502 1.5000 0.0000
vt -5.5000 1.8332 0.0000
vt -5.5000 1.5000 0.0000
vt -1.7501 1.1662 0.0000
vt -2.5001 0.8327 0.0000
vt -2.5001 0.5000 0.0000
vt -3.2501 0.5000 0.0000
vt -3.2501 0.1667 0.0000
vt -1.0001 2.5000 0.0000
vt -1.0001 2.1667 0.0000
vt -0.2501 2.1667 0.0000
vt -0.2501 1.8332 0.0000
vt -0.2501 1.5000 0.0000
vt 4.2500 1.5000 0.0000
vt 4.2500 1.1662 0.0000
vt 3.5000 0.8327 0.0000
vt 3.5000 0.5000 0.0000
vt 2.7499 0.5000 0.0000
vt -0.2501 -0.1670 0.0000
vt 0.4999 -0.1670 0.0000
vt 0.4999 0.1667 0.0000
vt 1.9999 0.8327 0.0000
vt 2.7499 0.8327 0.0000
vt 1.9999 1.1662 0.0000
vt 2.7499 1.1662 0.0000
vt -2.5001 1.5000 0.0000
vt -2.5001 1.1662 0.0000
vt -3.2501 1.1662 0.0000
vt -3.2501 0.8327 0.0000
vt 0.4999 -1.1668 0.0000
vt 1.2499 -1.1668 0.0000
vt 1.2499 -0.8333 0.0000
vt 1.9999 -0.8333 0.0000
vt -3.2501 1.8332 0.0000
vt -3.2501 1.5000 0.0000
vt -2.5001 1.8332 0.0000
vt 3.5000 1.1662 0.0000
vt 3.5000 1.5000 0.0000
vt 5.7500 0.1667 0.0000
vt 5.7500 0.5000 0.0000
vt 6.5000 0.5000 0.0000
vt 5.7500 0.8327 0.0000
vt 6.5000 0.8327 0.0000
vt 6.5000 -0.8333 0.0000
vt 6.5000 -0.5000 0.0000
vt 6.5000 -0.1670 0.0000
vt 6.5000 0.1667 0.0000
vt 4.2500 -0.5000 0.0000
vt 4.2500 -1.5000 0.0000
vt 3.5000 -1.5000 0.0000
vt 2.7499 -1.5000 0.0000
vt 6.5000 1.5000 0.0000
vt 6.5000 1.1662 0.0000
vt 2.7499 -1.1668 0.0000
vt -4.0002 0.8327 0.0000
vt -4.7502 1.1662 0.0000
vt -4.0002 1.1662 0.0000
vt -4.0002 1.5000 0.0000
vt -0.2501 -1.5000 0.0000
vt 0.4999 -1.5000 0.0000
vt 1.2499 -1.5000 0.0000
vt 5.0000 2.5000 0.0000
vt 1.9999 -1.5000 0.0000
vt 1.9999 -1.1668 0.0000
vt 1.2499 2.5000 0.0000
vt 0.4999 2.1667 0.0000
vt 0.4999 2.5000 0.0000
vt -0.2501 2.5000 0.0000
vt -2.5001 -0.8333 0.0000
vt -5.5000 -1.1668 0.0000
vt -4.7502 -1.5000 0.0000
vt -5.5000 -1.5000 0.0000
vt -4.7502 2.5000 0.0000
vt -5.5000 2.1667 0.0000
vt -5.5000 2.5000 0.0000
vt -5.5000 1.1662 0.0000
# 221 texture coords

g Object_029_Mesh_029_M_Object_029_Mesh_029_M_Material_016_d7981b66_d7981b66_dds
usemtl _diningroomMaterial_016_d7981b66_d7981b66_dds
s off
f 1/1/1 2/2/1 3/3/1 
f 3/3/1 2/2/1 4/4/1 
f 2/2/1 5/5/1 4/4/1 
f 4/4/1 5/5/1 6/6/1 
f 5/5/2 7/7/2 6/6/2 
f 6/6/3 7/7/3 8/8/3 
f 7/7/4 9/9/4 8/8/4 
f 8/8/5 9/9/5 10/10/5 
f 9/9/6 11/11/6 10/10/6 
f 10/10/7 11/11/7 12/12/7 
f 11/11/8 13/13/8 12/12/8 
f 12/12/9 13/13/9 14/14/9 
f 13/13/10 15/15/10 14/14/10 
f 14/14/11 15/15/11 16/16/11 
f 15/15/1 17/17/1 16/16/1 
f 16/16/8 17/17/8 18/18/8 
f 17/17/12 19/19/12 18/18/12 
f 18/18/9 19/19/9 20/20/9 
f 19/19/1 21/21/1 20/20/1 
f 20/20/1 21/21/1 22/22/1 
f 21/21/8 23/23/8 22/22/8 
f 22/22/11 23/23/11 24/24/11 
f 23/23/1 25/25/1 24/24/1 
f 24/24/1 25/25/1 26/26/1 
f 25/25/1 27/27/1 26/26/1 
f 26/26/1 27/27/1 28/28/1 
f 27/27/13 29/29/13 28/28/13 
f 28/28/13 29/29/13 30/30/13 
f 29/29/1 31/31/1 30/30/1 
f 30/30/14 31/31/14 32/32/14 
f 31/31/15 33/33/15 32/32/15 
f 32/32/15 33/33/15 34/34/15 
f 33/33/1 35/35/1 34/34/1 
f 34/34/1 35/35/1 36/36/1 
f 35/35/1 37/37/1 36/36/1 
f 18/18/10 20/20/10 16/16/10 
f 16/16/12 20/20/12 38/38/12 
f 20/20/16 22/22/16 38/38/16 
f 38/38/17 22/22/17 39/39/17 
f 22/22/1 40/40/1 39/39/1 
f 39/39/11 40/40/11 41/41/11 
f 40/40/7 42/42/7 41/41/7 
f 41/41/8 42/42/8 43/43/8 
f 42/42/11 44/44/11 43/43/11 
f 43/43/7 44/44/7 45/45/7 
f 44/44/1 46/46/1 45/45/1 
f 45/45/1 46/46/1 47/47/1 
f 46/46/1 48/48/1 47/47/1 
f 47/47/1 48/48/1 49/49/1 
f 48/48/1 50/50/1 49/49/1 
f 49/49/1 50/50/1 51/51/1 
f 50/50/1 52/52/1 51/51/1 
f 51/51/11 52/52/11 53/53/11 
f 52/52/7 54/54/7 53/53/7 
f 53/53/8 54/54/8 55/55/8 
f 54/54/10 56/56/10 55/55/10 
f 55/55/12 56/56/12 57/57/12 
f 3/3/1 4/4/1 58/58/1 
f 58/58/1 4/4/1 59/59/1 
f 4/4/1 6/6/1 59/59/1 
f 59/59/1 6/6/1 60/60/1 
f 6/6/1 61/61/1 60/60/1 
f 60/60/1 61/61/1 62/62/1 
f 61/61/5 63/63/5 62/62/5 
f 62/62/2 63/63/2 64/64/2 
f 63/63/1 65/65/1 64/64/1 
f 64/64/1 65/65/1 66/66/1 
f 65/65/1 67/67/1 66/66/1 
f 66/66/7 67/67/7 68/68/7 
f 67/67/7 69/69/7 68/68/7 
f 68/68/17 69/69/17 70/70/17 
f 69/69/17 71/71/17 70/70/17 
f 70/70/7 71/71/7 47/47/7 
f 71/71/8 45/45/8 47/47/8 
f 37/37/1 35/35/1 72/72/1 
f 72/72/1 35/35/1 73/73/1 
f 35/35/1 74/74/1 73/73/1 
f 73/73/11 74/74/11 75/75/11 
f 74/74/11 76/76/11 75/75/11 
f 75/75/11 76/76/11 77/77/11 
f 76/76/8 78/78/8 77/77/8 
f 77/77/8 78/78/8 79/79/8 
f 78/78/10 80/80/10 79/79/10 
f 79/79/12 80/80/12 81/81/12 
f 80/80/12 82/82/12 81/81/12 
f 81/81/10 82/82/10 83/83/10 
f 82/82/8 84/84/8 83/83/8 
f 83/83/12 84/84/12 85/85/12 
f 84/84/10 86/86/10 85/85/10 
f 36/36/1 87/87/1 34/34/1 
f 34/34/13 87/87/13 88/88/13 
f 87/87/18 89/89/18 88/88/18 
f 88/88/1 89/89/1 32/32/1 
f 89/89/19 90/90/19 32/32/19 
f 32/32/20 90/90/20 91/91/20 
f 90/90/13 92/92/13 91/91/13 
f 91/91/1 92/92/1 93/93/1 
f 92/92/11 94/94/11 93/93/11 
f 93/93/10 94/94/10 95/95/10 
f 94/94/9 96/96/9 95/95/9 
f 95/95/8 96/96/8 44/44/8 
f 96/96/8 46/46/8 44/44/8 
f 23/23/7 21/21/7 25/25/7 
f 25/25/11 21/21/11 97/97/11 
f 21/21/11 19/19/11 97/97/11 
f 97/97/11 19/19/11 98/98/11 
f 19/19/11 99/99/11 98/98/11 
f 98/98/1 99/99/1 100/100/1 
f 99/99/1 101/101/1 100/100/1 
f 100/100/1 101/101/1 102/102/1 
f 101/101/1 103/103/1 102/102/1 
f 102/102/1 103/103/1 104/104/1 
f 103/103/7 105/105/7 104/104/7 
f 104/104/11 105/105/11 106/106/11 
f 98/98/1 107/107/1 97/97/1 
f 97/97/1 107/107/1 25/25/1 
f 107/107/1 108/108/1 25/25/1 
f 25/25/1 108/108/1 27/27/1 
f 108/108/15 109/109/15 27/27/15 
f 27/27/13 109/109/13 29/29/13 
f 109/109/1 110/110/1 29/29/1 
f 29/29/1 110/110/1 111/111/1 
f 110/110/1 112/112/1 111/111/1 
f 111/111/1 112/112/1 76/76/1 
f 112/112/1 78/78/1 76/76/1 
f 113/113/11 114/114/11 57/57/11 
f 57/57/7 114/114/7 55/55/7 
f 114/114/1 115/115/1 55/55/1 
f 55/55/1 115/115/1 53/53/1 
f 115/115/1 116/116/1 53/53/1 
f 53/53/1 116/116/1 117/117/1 
f 116/116/1 118/118/1 117/117/1 
f 117/117/1 118/118/1 119/119/1 
f 118/118/1 120/120/1 119/119/1 
f 119/119/11 120/120/11 68/68/11 
f 120/120/11 66/66/11 68/68/11 
f 17/17/1 15/15/1 121/121/1 
f 121/121/8 15/15/8 122/122/8 
f 15/15/12 13/13/12 122/122/12 
f 122/122/9 13/13/9 123/123/9 
f 13/13/8 124/124/8 123/123/8 
f 123/123/11 124/124/11 125/125/11 
f 124/124/1 126/126/1 125/125/1 
f 125/125/5 126/126/5 127/127/5 
f 126/126/5 9/9/5 127/127/5 
f 127/127/4 9/9/4 128/128/4 
f 9/9/3 129/129/3 128/128/3 
f 72/72/11 73/73/11 130/130/11 
f 130/130/7 73/73/7 131/131/7 
f 73/73/17 75/75/17 131/131/17 
f 131/131/10 75/75/10 132/132/10 
f 75/75/12 133/133/12 132/132/12 
f 132/132/8 133/133/8 134/134/8 
f 133/133/10 135/135/10 134/134/10 
f 134/134/12 135/135/12 136/136/12 
f 135/135/16 79/79/16 136/136/16 
f 136/136/17 79/79/17 137/137/17 
f 79/79/1 138/138/1 137/137/1 
f 106/106/1 139/139/1 104/104/1 
f 104/104/13 139/139/13 140/140/13 
f 139/139/13 141/141/13 140/140/13 
f 140/140/19 141/141/19 142/142/19 
f 141/141/21 143/143/21 142/142/21 
f 142/142/13 143/143/13 144/144/13 
f 143/143/1 145/145/1 144/144/1 
f 144/144/1 145/145/1 146/146/1 
f 145/145/1 147/147/1 146/146/1 
f 146/146/1 147/147/1 148/148/1 
f 100/100/1 149/149/1 98/98/1 
f 98/98/1 149/149/1 107/107/1 
f 149/149/15 150/150/15 107/107/15 
f 107/107/15 150/150/15 108/108/15 
f 150/150/14 151/151/14 108/108/14 
f 108/108/18 151/151/18 109/109/18 
f 151/151/13 152/152/13 109/109/13 
f 109/109/1 152/152/1 153/153/1 
f 152/152/1 82/82/1 153/153/1 
f 153/153/8 82/82/8 80/80/8 
f 105/105/7 103/103/7 154/154/7 
f 154/154/11 103/103/11 155/155/11 
f 103/103/8 101/101/8 155/155/8 
f 155/155/7 101/101/7 156/156/7 
f 101/101/11 157/157/11 156/156/11 
f 156/156/1 157/157/1 121/121/1 
f 157/157/7 158/158/7 121/121/7 
f 121/121/11 158/158/11 17/17/11 
f 158/158/10 19/19/10 17/17/10 
f 6/6/2 159/159/2 61/61/2 
f 61/61/5 159/159/5 63/63/5 
f 159/159/1 160/160/1 63/63/1 
f 63/63/1 160/160/1 65/65/1 
f 160/160/1 161/161/1 65/65/1 
f 65/65/1 161/161/1 67/67/1 
f 161/161/8 162/162/8 67/67/8 
f 67/67/11 162/162/11 69/69/11 
f 162/162/1 163/163/1 69/69/1 
f 32/32/21 91/91/21 30/30/21 
f 30/30/15 91/91/15 164/164/15 
f 91/91/1 93/93/1 164/164/1 
f 164/164/8 93/93/8 165/165/8 
f 93/93/12 95/95/12 165/165/12 
f 165/165/9 95/95/9 166/166/9 
f 95/95/8 40/40/8 166/166/8 
f 166/166/8 40/40/8 22/22/8 
f 39/39/10 41/41/10 38/38/10 
f 38/38/10 41/41/10 167/167/10 
f 41/41/17 168/168/17 167/167/17 
f 167/167/1 168/168/1 169/169/1 
f 168/168/8 170/170/8 169/169/8 
f 169/169/8 170/170/8 14/14/8 
f 170/170/9 12/12/9 14/14/9 
f 100/100/1 171/171/1 149/149/1 
f 149/149/1 171/171/1 172/172/1 
f 171/171/15 173/173/15 172/172/15 
f 172/172/13 173/173/13 150/150/13 
f 173/173/19 174/174/19 150/150/19 
f 150/150/20 174/174/20 152/152/20 
f 174/174/18 82/82/18 152/152/18 
f 89/89/19 175/175/19 90/90/19 
f 90/90/13 175/175/13 92/92/13 
f 175/175/13 176/176/13 92/92/13 
f 92/92/1 176/176/1 177/177/1 
f 176/176/11 178/178/11 177/177/11 
f 177/177/8 178/178/8 94/94/8 
f 178/178/9 96/96/9 94/94/9 
f 142/142/20 144/144/20 140/140/20 
f 140/140/21 144/144/21 179/179/21 
f 144/144/15 180/180/15 179/179/15 
f 179/179/1 180/180/1 181/181/1 
f 180/180/1 171/171/1 181/181/1 
f 181/181/1 171/171/1 102/102/1 
f 171/171/1 100/100/1 102/102/1 
f 168/168/8 161/161/8 170/170/8 
f 170/170/1 161/161/1 182/182/1 
f 161/161/1 160/160/1 182/182/1 
f 182/182/1 160/160/1 183/183/1 
f 160/160/1 159/159/1 183/183/1 
f 183/183/6 159/159/6 8/8/6 
f 159/159/6 6/6/6 8/8/6 
f 120/120/1 184/184/1 66/66/1 
f 66/66/5 184/184/5 185/185/5 
f 184/184/22 186/186/22 185/185/22 
f 185/185/4 186/186/4 187/187/4 
f 186/186/5 188/188/5 187/187/5 
f 187/187/5 188/188/5 62/62/5 
f 114/114/5 189/189/5 115/115/5 
f 115/115/2 189/189/2 116/116/2 
f 189/189/3 190/190/3 116/116/3 
f 116/116/1 190/190/1 118/118/1 
f 190/190/1 191/191/1 118/118/1 
f 118/118/6 191/191/6 192/192/6 
f 68/68/17 70/70/17 119/119/17 
f 119/119/1 70/70/1 117/117/1 
f 70/70/1 193/193/1 117/117/1 
f 117/117/1 193/193/1 53/53/1 
f 193/193/8 51/51/8 53/53/8 
f 54/54/17 52/52/17 56/56/17 
f 56/56/11 52/52/11 194/194/11 
f 52/52/1 50/50/1 194/194/1 
f 194/194/1 50/50/1 195/195/1 
f 50/50/11 196/196/11 195/195/11 
f 59/59/1 60/60/1 58/58/1 
f 58/58/1 60/60/1 197/197/1 
f 60/60/1 62/62/1 197/197/1 
f 197/197/1 62/62/1 198/198/1 
f 62/62/1 188/188/1 198/198/1 
f 96/96/10 178/178/10 46/46/10 
f 46/46/1 178/178/1 48/48/1 
f 178/178/1 199/199/1 48/48/1 
f 48/48/1 199/199/1 50/50/1 
f 199/199/7 196/196/7 50/50/7 
f 71/71/10 69/69/10 45/45/10 
f 45/45/12 69/69/12 43/43/12 
f 69/69/9 163/163/9 43/43/9 
f 43/43/9 163/163/9 41/41/9 
f 163/163/16 168/168/16 41/41/16 
f 82/82/1 200/200/1 84/84/1 
f 84/84/1 200/200/1 201/201/1 
f 200/200/13 202/202/13 201/201/13 
f 201/201/21 202/202/21 203/203/21 
f 202/202/19 173/173/19 203/203/19 
f 22/22/7 24/24/7 166/166/7 
f 166/166/1 24/24/1 164/164/1 
f 24/24/1 26/26/1 164/164/1 
f 164/164/1 26/26/1 28/28/1 
f 87/87/15 204/204/15 89/89/15 
f 89/89/23 204/204/23 175/175/23 
f 204/204/14 205/205/14 175/175/14 
f 175/175/14 205/205/14 206/206/14 
f 2/2/1 207/207/1 5/5/1 
f 5/5/2 207/207/2 7/7/2 
f 207/207/2 129/129/2 7/7/2 
f 7/7/24 129/129/24 9/9/24 
f 196/196/7 199/199/7 208/208/7 
f 208/208/11 199/199/11 209/209/11 
f 199/199/8 178/178/8 209/209/8 
f 209/209/7 178/178/7 176/176/7 
f 125/125/7 210/210/7 123/123/7 
f 123/123/7 210/210/7 211/211/7 
f 210/210/11 212/212/11 211/211/11 
f 211/211/1 212/212/1 213/213/1 
f 29/29/1 111/111/1 31/31/1 
f 31/31/1 111/111/1 214/214/1 
f 111/111/1 74/74/1 214/214/1 
f 214/214/1 74/74/1 35/35/1 
f 171/171/18 180/180/18 173/173/18 
f 173/173/13 180/180/13 203/203/13 
f 180/180/15 144/144/15 203/203/15 
f 203/203/1 144/144/1 146/146/1 
f 14/14/7 16/16/7 169/169/7 
f 169/169/1 16/16/1 167/167/1 
f 16/16/8 38/38/8 167/167/8 
f 134/134/1 215/215/1 132/132/1 
f 132/132/1 215/215/1 216/216/1 
f 215/215/1 217/217/1 216/216/1 
f 102/102/1 104/104/1 181/181/1 
f 181/181/1 104/104/1 179/179/1 
f 104/104/21 140/140/21 179/179/21 
f 51/51/7 193/193/7 49/49/7 
f 49/49/11 193/193/11 47/47/11 
f 193/193/11 70/70/11 47/47/11 
f 141/141/20 218/218/20 143/143/20 
f 143/143/18 218/218/18 219/219/18 
f 218/218/15 220/220/15 219/219/15 
f 182/182/1 183/183/1 170/170/1 
f 170/170/10 183/183/10 12/12/10 
f 183/183/11 10/10/11 12/12/11 
f 123/123/17 211/211/17 122/122/17 
f 122/122/11 211/211/11 121/121/11 
f 211/211/1 156/156/1 121/121/1 
f 186/186/25 184/184/25 192/192/25 
f 192/192/2 184/184/2 118/118/2 
f 184/184/1 120/120/1 118/118/1 
f 185/185/25 187/187/25 66/66/25 
f 66/66/1 187/187/1 64/64/1 
f 187/187/6 62/62/6 64/64/6 
f 84/84/11 201/201/11 86/86/11 
f 86/86/7 201/201/7 221/221/7 
f 201/201/1 148/148/1 221/221/1 
f 82/82/15 174/174/15 200/200/15 
f 200/200/13 174/174/13 202/202/13 
f 174/174/19 173/173/19 202/202/19 
f 154/154/1 155/155/1 213/213/1 
f 213/213/1 155/155/1 156/156/1 
f 133/133/9 75/75/9 135/135/9 
f 135/135/1 75/75/1 77/77/1 
f 80/80/10 78/78/10 153/153/10 
f 153/153/1 78/78/1 112/112/1 
f 130/130/7 131/131/7 216/216/7 
f 216/216/11 131/131/11 132/132/11 
f 31/31/1 214/214/1 33/33/1 
f 33/33/1 214/214/1 35/35/1 
f 83/83/9 85/85/9 81/81/9 
f 81/81/8 85/85/8 138/138/8 
f 110/110/1 109/109/1 112/112/1 
f 112/112/1 109/109/1 153/153/1 
f 147/147/1 145/145/1 219/219/1 
f 219/219/1 145/145/1 143/143/1 
f 208/208/1 209/209/1 206/206/1 
f 206/206/1 209/209/1 176/176/1 
f 44/44/11 42/42/11 95/95/11 
f 95/95/7 42/42/7 40/40/7 
f 157/157/8 101/101/8 158/158/8 
f 158/158/1 101/101/1 99/99/1 
f 162/162/7 161/161/7 163/163/7 
f 163/163/11 161/161/11 168/168/11 
f 124/124/7 13/13/7 126/126/7 
f 126/126/11 13/13/11 11/11/11 
f 203/203/1 146/146/1 201/201/1 
f 201/201/1 146/146/1 148/148/1 
f 34/34/15 88/88/15 32/32/15 
f 164/164/10 165/165/10 166/166/10 
f 164/164/18 28/28/18 30/30/18 
f 94/94/7 92/92/7 177/177/7 
f 99/99/17 19/19/17 158/158/17 
f 77/77/1 79/79/1 135/135/1 
f 11/11/2 9/9/2 126/126/2 
f 175/175/15 206/206/15 176/176/15 
f 211/211/1 213/213/1 156/156/1 
f 138/138/8 79/79/8 81/81/8 
f 8/8/2 10/10/2 183/183/2 
f 149/149/18 172/172/18 150/150/18 
f 74/74/1 111/111/1 76/76/1 
f 152/152/21 151/151/21 150/150/21 
# 0 polygons - 384 triangles

